<mxfile host="app.diagrams.net" agent="Mozilla/5.0 (Windows NT 10.0; Win64; x64) AppleWebKit/537.36 (KHTML, like Gecko) Chrome/130.0.0.0 Safari/537.36" version="24.8.4">
  <diagram name="Página-1" id="HrB6XVKZfqiXbmjvlDUo">
    <mxGraphModel dx="1707" dy="1675" grid="1" gridSize="10" guides="1" tooltips="1" connect="1" arrows="1" fold="1" page="1" pageScale="1" pageWidth="827" pageHeight="1169" math="0" shadow="0">
      <root>
        <mxCell id="0" />
        <mxCell id="1" parent="0" />
        <mxCell id="w-B0NFVJNT0bPoodxBCx-7" style="edgeStyle=orthogonalEdgeStyle;rounded=0;orthogonalLoop=1;jettySize=auto;html=1;exitX=1;exitY=0.5;exitDx=0;exitDy=0;entryX=0;entryY=0;entryDx=0;entryDy=0;" edge="1" parent="1" source="w-B0NFVJNT0bPoodxBCx-1" target="w-B0NFVJNT0bPoodxBCx-6">
          <mxGeometry relative="1" as="geometry">
            <mxPoint x="376" y="220" as="targetPoint" />
          </mxGeometry>
        </mxCell>
        <mxCell id="w-B0NFVJNT0bPoodxBCx-1" value="Pessoa" style="whiteSpace=wrap;html=1;align=center;" vertex="1" parent="1">
          <mxGeometry x="60" y="150" width="100" height="40" as="geometry" />
        </mxCell>
        <mxCell id="w-B0NFVJNT0bPoodxBCx-9" style="edgeStyle=orthogonalEdgeStyle;rounded=0;orthogonalLoop=1;jettySize=auto;html=1;exitX=0.5;exitY=1;exitDx=0;exitDy=0;entryX=0.5;entryY=0;entryDx=0;entryDy=0;" edge="1" parent="1" source="w-B0NFVJNT0bPoodxBCx-3" target="w-B0NFVJNT0bPoodxBCx-6">
          <mxGeometry relative="1" as="geometry" />
        </mxCell>
        <mxCell id="w-B0NFVJNT0bPoodxBCx-3" value="Banco" style="whiteSpace=wrap;html=1;align=center;" vertex="1" parent="1">
          <mxGeometry x="340" y="10" width="100" height="40" as="geometry" />
        </mxCell>
        <mxCell id="w-B0NFVJNT0bPoodxBCx-4" value="Company" style="whiteSpace=wrap;html=1;align=center;" vertex="1" parent="1">
          <mxGeometry x="630" y="150" width="100" height="40" as="geometry" />
        </mxCell>
        <mxCell id="w-B0NFVJNT0bPoodxBCx-13" style="edgeStyle=orthogonalEdgeStyle;rounded=0;orthogonalLoop=1;jettySize=auto;html=1;entryX=0.5;entryY=0;entryDx=0;entryDy=0;" edge="1" parent="1" source="w-B0NFVJNT0bPoodxBCx-6" target="w-B0NFVJNT0bPoodxBCx-12">
          <mxGeometry relative="1" as="geometry" />
        </mxCell>
        <mxCell id="w-B0NFVJNT0bPoodxBCx-6" value="U" style="ellipse;whiteSpace=wrap;html=1;aspect=fixed;" vertex="1" parent="1">
          <mxGeometry x="370" y="220" width="40" height="40" as="geometry" />
        </mxCell>
        <mxCell id="w-B0NFVJNT0bPoodxBCx-8" style="edgeStyle=orthogonalEdgeStyle;rounded=0;orthogonalLoop=1;jettySize=auto;html=1;exitX=0;exitY=0.5;exitDx=0;exitDy=0;entryX=1;entryY=0;entryDx=0;entryDy=0;" edge="1" parent="1" source="w-B0NFVJNT0bPoodxBCx-4" target="w-B0NFVJNT0bPoodxBCx-6">
          <mxGeometry relative="1" as="geometry" />
        </mxCell>
        <mxCell id="w-B0NFVJNT0bPoodxBCx-12" value="Owner" style="whiteSpace=wrap;html=1;align=center;" vertex="1" parent="1">
          <mxGeometry x="340" y="340" width="100" height="40" as="geometry" />
        </mxCell>
        <mxCell id="w-B0NFVJNT0bPoodxBCx-16" style="edgeStyle=orthogonalEdgeStyle;rounded=0;orthogonalLoop=1;jettySize=auto;html=1;exitX=0.5;exitY=1;exitDx=0;exitDy=0;entryX=0.5;entryY=0;entryDx=0;entryDy=0;" edge="1" parent="1" source="w-B0NFVJNT0bPoodxBCx-14" target="w-B0NFVJNT0bPoodxBCx-1">
          <mxGeometry relative="1" as="geometry" />
        </mxCell>
        <mxCell id="w-B0NFVJNT0bPoodxBCx-14" value="Licença" style="ellipse;whiteSpace=wrap;html=1;align=center;fontStyle=4;" vertex="1" parent="1">
          <mxGeometry y="40" width="100" height="40" as="geometry" />
        </mxCell>
        <mxCell id="w-B0NFVJNT0bPoodxBCx-17" style="edgeStyle=orthogonalEdgeStyle;rounded=0;orthogonalLoop=1;jettySize=auto;html=1;exitX=1;exitY=0.5;exitDx=0;exitDy=0;entryX=0;entryY=0.5;entryDx=0;entryDy=0;" edge="1" parent="1" source="w-B0NFVJNT0bPoodxBCx-15" target="w-B0NFVJNT0bPoodxBCx-1">
          <mxGeometry relative="1" as="geometry" />
        </mxCell>
        <mxCell id="w-B0NFVJNT0bPoodxBCx-15" value="SSN/CPF" style="ellipse;whiteSpace=wrap;html=1;align=center;fontStyle=4;" vertex="1" parent="1">
          <mxGeometry x="-100" y="100" width="100" height="40" as="geometry" />
        </mxCell>
        <mxCell id="w-B0NFVJNT0bPoodxBCx-19" style="edgeStyle=orthogonalEdgeStyle;rounded=0;orthogonalLoop=1;jettySize=auto;html=1;exitX=0;exitY=1;exitDx=0;exitDy=0;entryX=1;entryY=0;entryDx=0;entryDy=0;" edge="1" parent="1" source="w-B0NFVJNT0bPoodxBCx-18" target="w-B0NFVJNT0bPoodxBCx-1">
          <mxGeometry relative="1" as="geometry" />
        </mxCell>
        <mxCell id="w-B0NFVJNT0bPoodxBCx-18" value="Nome" style="ellipse;whiteSpace=wrap;html=1;align=center;" vertex="1" parent="1">
          <mxGeometry x="120" y="40" width="100" height="40" as="geometry" />
        </mxCell>
        <mxCell id="w-B0NFVJNT0bPoodxBCx-21" style="edgeStyle=orthogonalEdgeStyle;rounded=0;orthogonalLoop=1;jettySize=auto;html=1;exitX=0;exitY=0.5;exitDx=0;exitDy=0;entryX=1;entryY=0.25;entryDx=0;entryDy=0;" edge="1" parent="1" source="w-B0NFVJNT0bPoodxBCx-20" target="w-B0NFVJNT0bPoodxBCx-1">
          <mxGeometry relative="1" as="geometry" />
        </mxCell>
        <mxCell id="w-B0NFVJNT0bPoodxBCx-20" value="Endereço" style="ellipse;whiteSpace=wrap;html=1;align=center;" vertex="1" parent="1">
          <mxGeometry x="210" y="80" width="100" height="40" as="geometry" />
        </mxCell>
        <mxCell id="w-B0NFVJNT0bPoodxBCx-25" style="edgeStyle=orthogonalEdgeStyle;rounded=0;orthogonalLoop=1;jettySize=auto;html=1;exitX=0.5;exitY=1;exitDx=0;exitDy=0;entryX=1;entryY=0.5;entryDx=0;entryDy=0;" edge="1" parent="1" source="w-B0NFVJNT0bPoodxBCx-24" target="w-B0NFVJNT0bPoodxBCx-3">
          <mxGeometry relative="1" as="geometry" />
        </mxCell>
        <mxCell id="w-B0NFVJNT0bPoodxBCx-24" value="Be&lt;span style=&quot;background-color: initial;&quot;&gt;ndereço&lt;/span&gt;" style="ellipse;whiteSpace=wrap;html=1;align=center;" vertex="1" parent="1">
          <mxGeometry x="480" y="-40" width="100" height="40" as="geometry" />
        </mxCell>
        <mxCell id="w-B0NFVJNT0bPoodxBCx-27" value="" style="edgeStyle=orthogonalEdgeStyle;rounded=0;orthogonalLoop=1;jettySize=auto;html=1;" edge="1" parent="1" source="w-B0NFVJNT0bPoodxBCx-26" target="w-B0NFVJNT0bPoodxBCx-3">
          <mxGeometry relative="1" as="geometry">
            <Array as="points">
              <mxPoint x="390" />
              <mxPoint x="390" />
            </Array>
          </mxGeometry>
        </mxCell>
        <mxCell id="w-B0NFVJNT0bPoodxBCx-26" value="Bnome" style="ellipse;whiteSpace=wrap;html=1;align=center;fontStyle=4;" vertex="1" parent="1">
          <mxGeometry x="340" y="-70" width="100" height="40" as="geometry" />
        </mxCell>
        <mxCell id="w-B0NFVJNT0bPoodxBCx-30" style="edgeStyle=orthogonalEdgeStyle;rounded=0;orthogonalLoop=1;jettySize=auto;html=1;exitX=0.5;exitY=1;exitDx=0;exitDy=0;entryX=0.5;entryY=0;entryDx=0;entryDy=0;" edge="1" parent="1" source="w-B0NFVJNT0bPoodxBCx-28" target="w-B0NFVJNT0bPoodxBCx-4">
          <mxGeometry relative="1" as="geometry" />
        </mxCell>
        <mxCell id="w-B0NFVJNT0bPoodxBCx-28" value="Cnome" style="ellipse;whiteSpace=wrap;html=1;align=center;fontStyle=4;" vertex="1" parent="1">
          <mxGeometry x="630" y="40" width="100" height="40" as="geometry" />
        </mxCell>
        <mxCell id="w-B0NFVJNT0bPoodxBCx-31" style="edgeStyle=orthogonalEdgeStyle;rounded=0;orthogonalLoop=1;jettySize=auto;html=1;exitX=0.5;exitY=1;exitDx=0;exitDy=0;entryX=1;entryY=0.5;entryDx=0;entryDy=0;" edge="1" parent="1" source="w-B0NFVJNT0bPoodxBCx-29" target="w-B0NFVJNT0bPoodxBCx-4">
          <mxGeometry relative="1" as="geometry" />
        </mxCell>
        <mxCell id="w-B0NFVJNT0bPoodxBCx-29" value="Ce&lt;span style=&quot;background-color: initial;&quot;&gt;ndereço&lt;/span&gt;" style="ellipse;whiteSpace=wrap;html=1;align=center;" vertex="1" parent="1">
          <mxGeometry x="790" y="80" width="100" height="40" as="geometry" />
        </mxCell>
      </root>
    </mxGraphModel>
  </diagram>
</mxfile>
